<?xml version="1.0" encoding="UTF-8" standalone="no"?>
<svg
   xmlns:dc="http://purl.org/dc/elements/1.1/"
   xmlns:cc="http://creativecommons.org/ns#"
   xmlns:rdf="http://www.w3.org/1999/02/22-rdf-syntax-ns#"
   xmlns:svg="http://www.w3.org/2000/svg"
   xmlns="http://www.w3.org/2000/svg"
   xml:space="preserve"
   enable-background="new 0 0 192.756 64.756"
   viewBox="0 0 192.756 64.756"
   height="64.756px"
   width="192.756px"
   y="0px"
   x="0px"
   id="Layer_1"
   version="1.1"><metadata
     id="metadata13"><rdf:RDF><cc:Work
         rdf:about=""><dc:format>image/svg+xml</dc:format><dc:type
           rdf:resource="http://purl.org/dc/dcmitype/StillImage" /><dc:title></dc:title></cc:Work></rdf:RDF></metadata><defs
     id="defs11" /><g
     id="g3"><path
       id="path7"
       d="M16.067,14.726H9.428v26.512h6.639V14.726L16.067,14.726z    M180.634,50.91c1.011,0,1.891-0.879,1.891-1.935c0-1.055-0.88-1.935-1.891-1.935c-0.044,0-0.044,0-0.088,0   c-2.55,0-2.507,3.869,0,3.869C180.59,50.91,180.59,50.91,180.634,50.91L180.634,50.91z M180.634,46.514   c1.318,0.044,2.374,1.099,2.374,2.462c0,1.319-1.056,2.418-2.374,2.462c-0.044,0-0.044,0-0.088,0c-1.319,0-2.419-1.143-2.419-2.462   c0-1.363,1.1-2.462,2.419-2.462C180.59,46.514,180.59,46.514,180.634,46.514L180.634,46.514z M180.634,49.635l0.264,0.616h0.879   l-0.571-1.188c0.352-0.088,0.527-0.352,0.527-0.703c0-0.616-0.615-0.748-1.099-0.791c-0.044,0-0.044,0-0.044,0h-1.1v2.682h0.836   v-1.012h0.088L180.634,49.635L180.634,49.635z M180.634,48.097c0.132,0.044,0.264,0.132,0.264,0.308   c0,0.22-0.132,0.308-0.264,0.308c-0.044,0-0.088,0.044-0.132,0.044h-0.176v-0.659h0.132   C180.502,48.097,180.546,48.097,180.634,48.097L180.634,48.097z M115.432,25.365c7.21,0,13.102,5.892,13.102,13.059   c0,7.21-5.892,13.058-13.102,13.058c-0.572,0-1.1,0-1.627-0.088v-6.727c0.527,0.132,1.055,0.22,1.627,0.22   c3.562,0,6.463-2.901,6.463-6.463s-2.901-6.419-6.463-6.419s-6.463,2.858-6.463,6.419c0,0.747,0.131,1.495,0.395,2.154h-6.858   c-0.088-0.703-0.176-1.407-0.176-2.154C102.329,31.257,108.221,25.365,115.432,25.365L115.432,25.365z M42.359,51.569h-8.441   L18.089,33.5l16.444-18.774h8.485L26.531,33.5L42.359,51.569L42.359,51.569z M47.063,25.717c0,4.294,0,8.588,0,12.882   c0,0.703,0.132,1.363,0.352,1.979h-5.716H40.6c-0.132-0.615-0.176-1.319-0.176-1.979v-0.176V25.717H47.063L47.063,25.717z    M161.948,25.365c7.21,0,13.102,5.892,13.102,13.059c0,0.044,0,0.132,0,0.176v12.882h-6.639v-1.671   c-1.935,1.056-4.133,1.671-6.463,1.671c-0.528,0-1.1,0-1.627-0.088v-6.727c0.527,0.132,1.055,0.22,1.627,0.22   c3.385,0,6.198-2.638,6.463-5.936V38.6c0-0.044,0-0.132,0-0.176c0-3.562-2.902-6.419-6.463-6.419c-3.562,0-6.464,2.858-6.464,6.419   c0,0.747,0.176,1.495,0.396,2.154h-6.814c-0.132-0.703-0.176-1.407-0.176-2.154C148.89,31.257,154.737,25.365,161.948,25.365   L161.948,25.365z M140.272,14.726h-6.683v36.8h6.683V31.609h6.814V24.97h-6.814V14.726L140.272,14.726z M78.852,14.726h-6.64   v23.698V38.6c0,0.659,0.088,1.363,0.176,1.979h6.859c-0.264-0.615-0.396-1.275-0.396-1.979v-0.703   c0.263-3.298,3.077-5.892,6.463-5.892c3.561,0,6.419,2.858,6.419,6.419s-2.858,6.463-6.419,6.463c-0.572,0-1.144-0.088-1.626-0.22   v6.727c0.527,0.088,1.055,0.088,1.626,0.088c7.21,0,13.014-5.848,13.014-13.058c0-7.167-5.803-13.059-13.014-13.059   c-2.33,0-4.529,0.616-6.463,1.715V14.726L78.852,14.726z M59.946,25.717h6.639v12.707V38.6   c-0.132,6.023-5.936,12.882-13.102,12.882c-0.527,0-1.099,0-1.627-0.088v-6.727c0.528,0.132,1.056,0.22,1.627,0.22   c3.474,0,6.288-4.265,6.463-6.287C59.946,34.291,59.946,30.026,59.946,25.717L59.946,25.717z"
       fill="#00B09B"
       clip-rule="evenodd"
       fill-rule="evenodd" /></g></svg>